HIERARCHY
ROOT Hips
{
  OFFSET 196.326 95.9168 97.7182
  CHANNELS 6 Xposition Yposition Zposition Zrotation Xrotation Yrotation
  JOINT LeftUpLeg
  {
    OFFSET 8.64259 1.95398 -2.38835
    CHANNELS 3 Zrotation Xrotation Yrotation
    JOINT LeftLeg
    {
      OFFSET 43.7702 0 0
      CHANNELS 3 Zrotation Xrotation Yrotation
      JOINT LeftFoot
      {
        OFFSET 40.6238 0 0
        CHANNELS 3 Zrotation Xrotation Yrotation
        JOINT LeftToeBase
        {
          OFFSET 12.7242 0 0
          CHANNELS 3 Zrotation Xrotation Yrotation
          End Site
          {
            OFFSET 0 0 0
          }
        }
      }
    }
  }
  JOINT RightUpLeg
  {
    OFFSET -8.2249 1.95398 -2.59336
    CHANNELS 3 Zrotation Xrotation Yrotation
    JOINT RightLeg
    {
      OFFSET 43.5653 0 0
      CHANNELS 3 Zrotation Xrotation Yrotation
      JOINT RightFoot
      {
        OFFSET 40.6238 0 0
        CHANNELS 3 Zrotation Xrotation Yrotation
        JOINT RightToeBase
        {
          OFFSET 12.7242 0 0
          CHANNELS 3 Zrotation Xrotation Yrotation
          End Site
          {
            OFFSET 0 0 0
          }
        }
      }
    }
  }
  JOINT Spine
  {
    OFFSET 0.165834 0.87714 6.61349
    CHANNELS 3 Zrotation Xrotation Yrotation
    JOINT Spine1
    {
      OFFSET 7.38963 1.71661e-005 0
      CHANNELS 3 Zrotation Xrotation Yrotation
      JOINT Spine2
      {
        OFFSET 11.9445 1.14441e-005 0
        CHANNELS 3 Zrotation Xrotation Yrotation
        JOINT Spine3
        {
          OFFSET 14.7254 4.19617e-005 0
          CHANNELS 3 Zrotation Xrotation Yrotation
          JOINT Spine4
          {
            OFFSET 10.9679 0 0
            CHANNELS 3 Zrotation Xrotation Yrotation
            JOINT RightShoulder
            {
              OFFSET 2.46616 -1.6653 3.69651
              CHANNELS 3 Zrotation Xrotation Yrotation
              JOINT RightArm
              {
                OFFSET 13.0012 0 0
                CHANNELS 3 Zrotation Xrotation Yrotation
                JOINT RightForeArm
                {
                  OFFSET 28.7848 1.52588e-005 0
                  CHANNELS 3 Zrotation Xrotation Yrotation
                  JOINT RightHand
                  {
                    OFFSET 26.5688 1.52588e-005 0
                    CHANNELS 3 Zrotation Xrotation Yrotation
                    End Site
                    {
                      OFFSET 0 0 0
                    }
                  }
                }
              }
            }
            JOINT LeftShoulder
            {
              OFFSET 2.38034 -1.29275 -3.75231
              CHANNELS 3 Zrotation Xrotation Yrotation
              JOINT LeftArm
              {
                OFFSET 16.3182 6.10351e-005 0
                CHANNELS 3 Zrotation Xrotation Yrotation
                JOINT LeftForeArm
                {
                  OFFSET 27.0901 0 0
                  CHANNELS 3 Zrotation Xrotation Yrotation
                  JOINT LeftHand
                  {
                    OFFSET 24.5451 1.52588e-005 0
                    CHANNELS 3 Zrotation Xrotation Yrotation
                    End Site
                    {
                      OFFSET 0 0 0
                    }
                  }
                }
              }
            }
            JOINT Neck
            {
              OFFSET 5.0226 -0.0266342 0
              CHANNELS 3 Zrotation Xrotation Yrotation
              JOINT Head
              {
                OFFSET 6.69363 2.86102e-005 0
                CHANNELS 3 Zrotation Xrotation Yrotation
                End Site
                {
                  OFFSET 0 0 0
                }
              }
            }
          }
        }
      }
    }
  }
}
MOTION
Frames:	6
Frame Time:	0.0416667
39.1564 95.0417 18.3208 88.2032 -38.0702 88.7195 -172.385 17.0578 91.7061 -23.5561 8.60858 -0.503924 59.8322 6.20308 14.8686 48.2178 15.4034 -29.2319 179.827 21.1553 90.6441 -36.0654 11.3479 -2.85039 69.4474 -4.29085 -2.21931 42.2913 2.0324 21.0608 -0.116157 7.52019 -90.0813 11.8333 -0.26914 -0.133371 0.162404 -0.274759 -0.121402 -22.3728 -0.216637 -0.208097 -2.3602 -0.216631 -0.208097 83.8801 -47.7284 -110.896 30.5322 -7.17158 1.55087 -6.65363 -11.8917 -40.1443 -12.279 -1.07451 5.17174 -102.184 -41.9223 57.3859 -27.7132 3.45106 6.0679 4.92024 2.86483 -37.3785 10.3317 0.525103 1.15611 11.2371 -3.72517 4.49567 1.00292 -5.01452 -4.60344 
39.8728 95.0731 18.212 88.3029 -37.6129 88.902 -172.606 16.7626 91.3956 -23.7848 8.05684 -0.311282 60.4448 6.54815 14.9551 49.0671 15.6747 -30.836 -179.742 19.0124 90.6916 -32.3432 4.79157 -2.93874 70.8538 -4.68119 -2.40293 39.1752 0.901979 12.1081 -0.0765962 7.45429 -89.846 11.9648 -0.0796799 0.315724 0.293858 -0.0657111 0.318924 -22.241 -0.170882 0.277185 -2.22837 -0.170889 0.277173 82.7452 -52.7548 -110.851 27.4151 -7.69959 2.1611 -6.0028 -14.9139 -34.0686 -8.28176 -0.685553 3.9971 -100.675 -40.6662 59.1675 -27.5427 2.7643 5.31717 4.70876 2.08951 -39.0933 16.5221 1.36996 4.47157 10.9524 -3.93949 0.476242 1.28989 -4.07651 -1.62374 
40.6784 95.3595 18.5845 88.1039 -36.9581 88.6608 -172.848 15.4646 91.0702 -21.9598 8.63581 -0.179599 60.2651 6.70451 15.0892 47.8686 14.9891 -30.3752 -179.417 16.935 90.9164 -27.8534 7.29276 -3.14297 68.4395 -3.60567 -1.91088 32.1933 -0.32555 16.9252 -0.0143758 7.30114 -89.7767 12.2712 0.0773875 0.436832 0.600217 0.0965292 0.432995 -21.9344 -0.0574801 0.439892 -1.92172 -0.057496 0.439884 81.962 -52.3535 -112.133 28.2009 -8.11814 5.88252 -9.07873 -20.8172 -33.6794 -2.29925 -0.382383 5.23004 -100.693 -41.2372 59.3964 -27.2452 0.919668 6.08198 3.31737 -1.4779 -41.5447 17.0619 1.29913 3.72227 10.593 -4.52791 2.26094 1.01955 -5.19127 -3.57713 
41.4513 95.9867 18.9753 88.2913 -36.2711 89.1258 -172.966 13.2302 91.3493 -18.7005 9.18992 0.0548354 59.6669 5.91156 14.2472 47.2214 14.5978 -30.2264 -179.602 13.7453 90.9416 -23.3557 7.93067 -2.87829 67.8784 -3.51257 -1.87279 31.9311 -0.472195 18.5842 -0.00618345 7.21584 -89.8024 12.442 0.0817317 0.385449 0.770967 0.0986127 0.381473 -21.7637 -0.0378789 0.392193 -1.7511 -0.0378992 0.39219 82.4536 -51.5979 -111.679 29.5338 -9.01075 8.58776 -9.34879 -21.1698 -34.0507 -0.604607 -0.253204 5.58979 -100.459 -42.0471 60.1222 -27.8832 0.01103 7.13716 4.37817 -0.804875 -43.5265 16.7152 1.39843 4.4718 10.9125 -4.86392 2.92426 -0.0256811 -5.64307 -3.50031 
42.1735 96.5727 19.3109 87.5583 -36.3116 88.7248 -172.653 10.8712 91.4565 -14.0083 9.02064 -0.129646 59.7833 5.23501 12.7414 43.6677 12.4348 -29.1677 179.4 11.6153 90.1994 -19.1337 6.12601 -1.96797 66.4913 -2.76024 -1.48338 30.7138 -0.721712 18.0769 0.0147963 7.06645 -89.8295 12.7407 0.110952 0.327556 1.06971 0.125235 0.322363 -21.4651 0.00736393 0.345765 -1.45246 0.00736123 0.345754 83.3286 -51.0497 -110.577 30.3995 -8.35554 10.8582 -8.11296 -17.6251 -36.2745 -1.50551 -0.292907 2.06117 -99.7235 -42.0885 61.2909 -30.1392 0.288777 8.01438 5.27001 0.478982 -43.1331 17.3624 1.51322 4.83069 11.6497 -4.93222 3.40856 -1.63645 -5.77855 -3.27695 
42.4704 96.8795 19.6628 86.7214 -36.3949 87.8079 -172.174 9.17167 91.4435 -9.79746 10.7693 -0.825122 58.856 4.24004 13.4807 42.0513 11.4474 -28.3982 179.025 10.3558 89.6824 -15.9974 5.74744 -1.71088 66.3125 -2.53015 -1.35065 28.8837 -1.15998 18.5477 -0.0168582 6.96959 -89.8283 12.9345 0.0489327 0.337451 1.2635 0.0637556 0.334965 -21.2713 -0.054758 0.336553 -1.25866 -0.054731 0.336561 83.5727 -50.5023 -110.4 31.0666 -7.70766 11.9945 -8.82803 -15.926 -38.7314 -4.18405 -0.443396 3.75995 -99.9274 -42.2563 61.0437 -31.8164 2.314 8.49567 3.84036 0.00576889 -39.8546 15.3813 1.16905 3.68384 12.5427 -4.54026 4.18701 -2.14133 -5.59579 -3.30282 
